<svg xmlns="http://www.w3.org/2000/svg" viewBox="0 0 179.11 99.3"><defs><style>.cls-1{fill:#fff;}</style></defs><g id="Layer_2" data-name="Layer 2"><g id="Layer_1-2" data-name="Layer 1"><path class="cls-1" d="M10.73,0C12.09,1,15,2.44,17.28,4.66q32.13,31.89,64.05,64c6.8,6.8,10.2,6.76,17.11-.15,21.34-21.34,42.62-42.74,64.08-63.95,2.1-2.08,5.31-4.28,7.95-4.21a11,11,0,0,1,7.95,4.54c1.31,2.14.45,5.89-.12,8.81-.27,1.4-2,2.57-3.18,3.74Q136.6,56,98.05,94.56c-6.26,6.26-9.92,6.32-16,.23Q43.31,56.06,4.63,17.29A18.38,18.38,0,0,1,.78,12.16C-1.87,6.24,2.4,0,10.73,0Z"/></g></g></svg>