<svg xmlns="http://www.w3.org/2000/svg" viewBox="0 0 800.18 801.75"><defs><style>.cls-1{fill:#fff;}</style></defs><g id="Layer_2" data-name="Layer 2"><g id="Layer_1-2" data-name="Layer 1"><path class="cls-1" d="M0,298C0,148.52,101.3,28.61,240.92,4.26,386.25-21.08,529.15,69,568.19,211.19c21.6,78.72,11.47,153.83-29.1,224.7-2.18,3.81-1.78,5.78,1.21,8.76q119.3,119,238.35,238.17A117.53,117.53,0,0,1,791.7,697.9c10.44,14.78,11.38,30.61,2.06,46a150.75,150.75,0,0,1-51.34,51.58c-16.11,9.75-33.19,8.07-48.63-5.16-12.74-10.93-24.39-23.16-36.29-35.05Q549.95,648,442.57,540.41c-3-3-5.12-3.24-8.87-1.23C384.09,565.79,331,577.43,274.85,575.66c-50.59-1.6-98.76-13.17-141.21-41.24C66.33,489.91,23.39,427.81,6.08,348.58,1.84,329.15.05,309.42,0,298ZM288.54,97.65c-105,.2-190,85.27-189.74,190.06C99,392.7,184.18,477.62,289,477.33s189.46-85.06,189.48-189.79C478.46,182.62,393.28,97.44,288.54,97.65Z"/></g></g></svg>